<?xml version="1.0" encoding="UTF-8"?>
<svg width="24px" height="24px" viewBox="0 0 24 24" version="1.1" xmlns="http://www.w3.org/2000/svg" xmlns:xlink="http://www.w3.org/1999/xlink">
    <!-- Generator: Sketch 49.1 (51147) - http://www.bohemiancoding.com/sketch -->
    <title>btn2/btn_more</title>
    <desc>Created with Sketch.</desc>
    <defs></defs>
    <g id="btn2/btn_more" stroke="none" stroke-width="1" fill="none" fill-rule="evenodd">
        <g id="Group-2" transform="translate(3.000000, 3.000000)">
            <path d="M9,17.2 C13.5287349,17.2 17.2,13.5287349 17.2,9 C17.2,4.47126505 13.5287349,0.8 9,0.8 C4.47126505,0.8 0.8,4.47126505 0.8,9 C0.8,13.5287349 4.47126505,17.2 9,17.2 Z" id="Background" stroke="#FFFFFF" stroke-width="1.6"></path>
            <g id="Group" transform="translate(6.000000, 4.000000)" fill="#FFFFFF">
                <path d="M2.09994485,9.02596407 C2.09994485,8.52950509 2.50228528,8.12597114 3,8.12597114 C3.49618354,8.12597114 3.8999448,8.52950509 3.8999448,9.02596407 C3.8999448,9.52249345 3.49761816,9.92597109 3,9.92597109 C2.50373369,9.92597109 2.09994485,9.52249345 2.09994485,9.02596407 Z M5.61879745,3.61319061 C5.41822515,3.92601993 5.07638799,4.4002066 4.42360748,4.93904422 C4.08601426,5.21710782 3.87586851,5.44146801 3.7946274,5.6121248 C3.71346464,5.78116458 3.67521786,6.67811582 3.68313045,7.11581255 L2.22784137,7.11581255 C2.224645,6.90880412 2.22147996,6.18885332 2.22147996,6.14300175 C2.22147996,5.67532814 2.29946202,5.29141255 2.45550449,4.98960689 C2.61153128,4.68780123 2.92361621,4.34808911 3.39019242,3.97204091 C3.85676862,3.59439124 4.13695251,3.34790599 4.22778273,3.2310148 C4.36789034,3.04616252 4.43946399,2.84231037 4.43946399,2.62105982 C4.43946399,2.31297269 4.31377139,2.04913568 4.06534752,1.82794731 C3.816955,1.60829822 3.44946385,1.43228804 3,1.43228804 C2.55053615,1.43228804 2.30900413,1.61300932 2.03516598,1.8421428 C1.76128083,2.07119854 1.52562678,2.5768719 1.46986264,2.88971677 C1.41731053,3.18520987 -0.0173274864,3.31004618 0.000158545175,2.71117705 C0.0176602453,2.11232347 0.366716662,1.38389046 0.904897857,0.913045018 C1.44314173,0.442184029 1.93465248,0.110568669 3,0.110568669 C4.06534752,0.110568669 4.62694066,0.435933662 5.17149893,0.913045018 C5.7160572,1.39021857 5.91659272,1.98414592 5.91659272,2.61771858 C5.91812823,2.96848545 5.81783424,3.30031464 5.61879745,3.61319061 Z" id="Combined-Shape"></path>
            </g>
        </g>
    </g>
</svg>