<?xml version="1.0" encoding="UTF-8"?>
<svg width="64px" height="64px" viewBox="0 0 64 64" version="1.1" xmlns="http://www.w3.org/2000/svg" xmlns:xlink="http://www.w3.org/1999/xlink">
    <!-- Generator: Sketch 48.1 (47250) - http://www.bohemiancoding.com/sketch -->
    <title>其他图标/入口</title>
    <desc>Created with Sketch.</desc>
    <defs></defs>
    <g id="Symbols" stroke="none" stroke-width="1" fill="none" fill-rule="evenodd">
        <g id="其他图标/入口">
            <g id="入口">
                <rect id="Rectangle-11" fill="#00B345" x="0" y="0" width="64" height="64" rx="4"></rect>
                <g transform="translate(32.000000, 34.000000) rotate(-270.000000) translate(-32.000000, -34.000000) translate(12.000000, 16.000000)" id="Group">
                    <g transform="translate(20.000000, 18.000000) rotate(-270.000000) translate(-20.000000, -18.000000) translate(2.000000, -2.000000)">
                        <path d="M23.3667286,5.91732144 C23.3656357,5.91732144 23.3650893,5.91473185 23.3639964,5.91473185 L18.7858666,0.48824598 C18.7858666,0.48824598 18.7858666,0.48824598 18.7853201,0.48824598 C18.0377811,-0.3986886 17.4055424,0.147067496 17.1902424,0.387251969 L17.1055432,0.486951185 L17.1044503,0.48824598 L12.7574674,5.63764572 C11.1694935,7.51898287 12.5405281,7.94885481 12.736156,7.99999921 L23.3667286,7.99999921 C23.3694609,8.00064661 24.7902221,7.60249715 23.3667286,5.91732144 Z" id="Shape" fill="#FFFFFF"></path>
                        <path d="M15,7 L21,7 L21,19.3809524 C21,19.9332371 20.5522847,20.3809524 20,20.3809524 L16,20.3809524 C15.4477153,20.3809524 15,19.9332371 15,19.3809524 L15,7 Z" id="Rectangle" fill="#FFFFFF"></path>
                        <path d="M7.64670577,39.6171506 L2.84210526,39.6171506 C1.27245387,39.6171506 1.24344979e-14,38.3147062 1.24344979e-14,36.7080597 L-1.77635684e-15,12.5262415 C-1.77635684e-15,10.9195949 1.27245387,9.61715058 2.84210526,9.61715058 L33.1578947,9.61715058 C34.7275461,9.61715058 36,10.9195949 36,12.5262415 L36,36.7080597 C36,38.3147062 34.7275461,39.6171506 33.1578947,39.6171506 L28.3479346,39.6171506" id="Rectangle-38" stroke="#FFFFFF" stroke-width="3.2" stroke-linecap="round" stroke-linejoin="round" transform="translate(18.000000, 24.617151) rotate(-180.000000) translate(-18.000000, -24.617151) "></path>
                    </g>
                </g>
            </g>
        </g>
    </g>
</svg>