<?xml version="1.0" encoding="UTF-8"?>
<svg width="64px" height="64px" viewBox="0 0 64 64" version="1.1" xmlns="http://www.w3.org/2000/svg" xmlns:xlink="http://www.w3.org/1999/xlink">
    <!-- Generator: Sketch 48.1 (47250) - http://www.bohemiancoding.com/sketch -->
    <title>其他图标/卫生间</title>
    <desc>Created with Sketch.</desc>
    <defs></defs>
    <g id="Symbols" stroke="none" stroke-width="1" fill="none" fill-rule="evenodd">
        <g id="其他图标/卫生间">
            <g id="3-PLC立体车库">
                <rect id="Rectangle-11" fill="#369AEB" x="0" y="0" width="64" height="64" rx="4"></rect>
                <g id="Group-25" transform="translate(10.000000, 13.000000)" fill="#FFFFFF">
                    <g id="男" transform="translate(0.000000, 2.000000)">
                        <circle id="Oval" cx="7" cy="4" r="4"></circle>
                        <path d="M11.4168087,10 L2.57957539,10 C1.1556382,10 0,11.1129578 0,12.5008118 L0,20.3160342 C0,21.5352357 0.910480913,22.5560662 2.10950979,22.7707823 C2.10661708,22.776726 2.82979493,22.7834127 2.96069012,23.7113728 C3.22031097,25.5687791 3.80753138,30.8333838 4.00423576,32.5734019 C4.26096389,34.8134339 5.62343096,34.8609835 5.62343096,34.8609835 C5.62343096,34.8609835 6.84053928,35.1737707 8.42429878,34.8609835 C9.99359471,34.5481963 10.141123,32.6729589 10.141123,32.6729589 L11.1231985,23.5553507 C11.2034713,22.8889133 11.8102175,22.7886134 11.8102175,22.7886134 C13.0468516,22.5961861 14,21.5619823 14,20.3167772 L14,12.5015547 C13.9992768,11.1137008 12.8407459,10 11.4168087,10 Z" id="Shape"></path>
                    </g>
                    <g id="女" transform="translate(26.000000, 2.000000)">
                        <circle id="Oval" cx="9" cy="4" r="4"></circle>
                        <path d="M10.5618934,9.97845545 L7.57957539,10 C6.1556382,10 5.79009837,10.9785724 5,12.5008118 L1,20.3160342 C0.225570576,22 2.08603643,22.7784666 3.10950979,22.7707823 C3.10661708,22.776726 4.97487956,22.7618681 5.10577476,23.6898283 C5.3653956,25.5472345 5.80753138,30.8333838 6.00423576,32.5734019 C6.26096389,34.8134339 7.62343096,34.8609835 7.62343096,34.8609835 C7.62343096,34.8609835 8.84053928,35.1737707 10.4242988,34.8609835 C11.9935947,34.5481963 12.141123,32.6729589 12.141123,32.6729589 L12.9079882,23.6898283 C12.9882609,23.0233909 14.8102175,22.7886134 14.8102175,22.7886134 C16.3818776,22.6607981 17.5919964,21.6468786 17,20.3167772 L12.9929834,12.5008118 C12.3078613,11.1324937 11.9858305,9.97845545 10.5618934,9.97845545 Z" id="Shape"></path>
                    </g>
                    <rect id="Rectangle-33-Copy" x="20" y="0" width="2" height="38" rx="1"></rect>
                </g>
            </g>
        </g>
    </g>
</svg>