<?xml version="1.0" encoding="UTF-8"?>
<svg width="64px" height="64px" viewBox="0 0 64 64" version="1.1" xmlns="http://www.w3.org/2000/svg" xmlns:xlink="http://www.w3.org/1999/xlink">
    <!-- Generator: Sketch 48.1 (47250) - http://www.bohemiancoding.com/sketch -->
    <title>其他图标/右</title>
    <desc>Created with Sketch.</desc>
    <defs></defs>
    <g id="Symbols" stroke="none" stroke-width="1" fill="none" fill-rule="evenodd">
        <g id="其他图标/右" fill="#FFFFFF">
            <g id="入口" transform="translate(13.000000, 19.000000)">
                <g id="下" transform="translate(19.000000, 13.500000) rotate(-270.000000) translate(-19.000000, -13.500000) translate(6.000000, -5.000000)">
                    <path d="M24.6279121,12.5743081 C24.6255441,12.5743081 24.6243601,12.5688052 24.6219922,12.5688052 L14.7027109,1.03752271 C14.7027109,1.03752271 14.7027109,1.03752271 14.7015269,1.03752271 C13.0818591,-0.847213274 11.7120085,0.312518428 11.2455252,0.822910435 L11.0620102,1.03477127 L11.0596423,1.03752271 L1.64117931,11.9799972 C-1.7994308,15.9778386 1.17114414,16.8913165 1.59500457,16.9999983 L24.6279121,16.9999983 C24.6338319,17.001374 27.7121479,16.1553064 24.6279121,12.5743081 Z" id="Shape"></path>
                    <path d="M8,14 L18,14 L18,36 C18,36.5522847 17.5522847,37 17,37 L9,37 C8.44771525,37 8,36.5522847 8,36 L8,14 Z" id="Rectangle"></path>
                </g>
            </g>
        </g>
    </g>
</svg>